<svg id="svg" version="1.1" xmlns="http://www.w3.org/2000/svg" xmlns:xlink="http://www.w3.org/1999/xlink" width="400" height="400" viewBox="0, 0, 400,400"><g id="svgg"><path id="path0" d="M89.500 0.297 C 87.355 0.370,85.600 0.602,85.600 0.814 C 85.600 1.027,84.509 1.200,83.176 1.200 C 81.663 1.200,80.846 1.350,81.000 1.600 C 81.152 1.847,80.471 2.000,79.224 2.000 C 78.111 2.000,77.200 2.180,77.200 2.400 C 77.200 2.620,76.480 2.800,75.600 2.800 C 74.720 2.800,74.000 2.980,74.000 3.200 C 74.000 3.420,73.370 3.600,72.600 3.600 C 71.830 3.600,71.200 3.780,71.200 4.000 C 71.200 4.220,70.660 4.400,70.000 4.400 C 69.340 4.400,68.800 4.580,68.800 4.800 C 68.800 5.020,68.260 5.200,67.600 5.200 C 66.940 5.200,66.400 5.380,66.400 5.600 C 66.400 5.820,65.950 6.000,65.400 6.000 C 64.850 6.000,64.400 6.180,64.400 6.400 C 64.400 6.620,63.950 6.800,63.400 6.800 C 62.850 6.800,62.400 6.980,62.400 7.200 C 62.400 7.420,62.051 7.600,61.624 7.600 C 61.197 7.600,60.736 7.780,60.600 8.000 C 60.464 8.220,59.928 8.400,59.410 8.400 C 58.891 8.400,58.407 8.535,58.333 8.700 C 58.101 9.222,54.740 10.810,54.362 10.577 C 54.163 10.453,54.000 10.530,54.000 10.747 C 54.000 11.103,53.208 11.603,50.503 12.952 C 50.010 13.199,49.605 13.529,49.603 13.687 C 49.601 13.846,49.330 13.871,49.000 13.745 C 48.670 13.618,48.400 13.696,48.400 13.918 C 48.400 14.376,45.805 16.000,45.073 16.000 C 44.809 16.000,44.368 16.360,44.093 16.800 C 43.818 17.240,43.326 17.600,43.000 17.600 C 42.674 17.600,41.891 18.140,41.260 18.800 C 40.629 19.460,39.953 20.001,39.757 20.002 C 39.561 20.003,38.825 20.543,38.122 21.202 C 37.419 21.861,36.728 22.400,36.587 22.400 C 36.446 22.400,33.276 25.460,29.542 29.200 C 25.809 32.940,22.574 36.000,22.353 36.000 C 22.133 36.000,22.063 36.179,22.199 36.398 C 22.334 36.617,21.895 37.382,21.224 38.098 C 20.553 38.814,20.003 39.561,20.002 39.757 C 20.001 39.953,19.460 40.629,18.800 41.260 C 18.140 41.891,17.600 42.616,17.600 42.872 C 17.600 43.128,17.301 43.667,16.936 44.071 C 16.216 44.867,15.470 46.079,14.827 47.500 C 14.603 47.995,14.216 48.400,13.967 48.400 C 13.718 48.400,13.618 48.670,13.745 49.000 C 13.871 49.330,13.801 49.600,13.587 49.600 C 13.374 49.600,13.200 49.870,13.200 50.200 C 13.200 50.530,13.062 50.800,12.894 50.800 C 12.726 50.800,12.277 51.520,11.896 52.400 C 11.514 53.280,11.027 54.000,10.814 54.000 C 10.600 54.000,10.528 54.268,10.654 54.597 C 10.783 54.932,10.613 55.297,10.267 55.430 C 9.928 55.560,9.741 55.903,9.853 56.193 C 9.964 56.482,9.862 56.838,9.627 56.983 C 9.392 57.128,9.200 57.597,9.200 58.024 C 9.200 58.451,9.020 58.800,8.800 58.800 C 8.580 58.800,8.400 59.149,8.400 59.576 C 8.400 60.003,8.220 60.464,8.000 60.600 C 7.780 60.736,7.600 61.197,7.600 61.624 C 7.600 62.051,7.420 62.400,7.200 62.400 C 6.980 62.400,6.800 62.850,6.800 63.400 C 6.800 63.950,6.620 64.400,6.400 64.400 C 6.180 64.400,6.000 64.850,6.000 65.400 C 6.000 65.950,5.820 66.400,5.600 66.400 C 5.380 66.400,5.200 66.940,5.200 67.600 C 5.200 68.260,5.020 68.800,4.800 68.800 C 4.580 68.800,4.400 69.340,4.400 70.000 C 4.400 70.660,4.220 71.200,4.000 71.200 C 3.780 71.200,3.600 71.830,3.600 72.600 C 3.600 73.370,3.420 74.000,3.200 74.000 C 2.980 74.000,2.800 74.709,2.800 75.576 C 2.800 76.443,2.620 77.264,2.400 77.400 C 2.180 77.536,2.000 78.357,2.000 79.224 C 2.000 80.091,1.820 80.800,1.600 80.800 C 1.378 80.800,1.200 81.856,1.200 83.167 C 1.200 84.704,1.025 85.592,0.700 85.700 C 0.302 85.833,0.189 106.215,0.144 185.633 C 0.111 244.432,0.232 284.250,0.439 282.600 C 1.727 272.326,2.227 269.053,3.433 263.000 C 4.708 256.598,5.147 254.685,6.000 251.800 C 6.345 250.633,6.671 249.500,7.610 246.200 C 7.861 245.320,8.162 244.103,8.279 243.495 C 8.396 242.887,8.651 242.292,8.846 242.171 C 9.041 242.051,9.200 241.601,9.200 241.171 C 9.200 240.741,9.374 240.077,9.587 239.695 C 9.800 239.313,10.233 238.190,10.549 237.200 C 13.032 229.422,22.891 208.528,26.409 203.587 C 26.844 202.976,27.200 202.352,27.200 202.200 C 27.200 200.970,40.634 182.683,45.941 176.690 C 55.711 165.656,68.392 154.093,77.400 148.005 C 78.500 147.261,79.490 146.536,79.600 146.393 C 79.958 145.927,86.974 141.324,91.238 138.758 C 96.887 135.357,110.015 128.761,115.000 126.819 C 115.440 126.647,116.340 126.279,117.000 126.000 C 117.660 125.721,118.605 125.337,119.100 125.146 C 120.353 124.664,121.837 124.068,122.900 123.621 C 124.993 122.741,136.240 119.200,136.943 119.200 C 137.084 119.200,137.244 155.425,137.297 199.700 L 137.394 280.200 137.597 198.800 L 137.800 117.400 139.175 115.400 C 143.052 109.760,150.390 107.731,155.793 110.805 C 159.431 112.874,160.286 113.410,161.165 114.168 C 161.695 114.625,162.015 114.800,161.875 114.555 C 161.617 114.103,164.797 113.464,169.800 112.965 C 171.120 112.833,202.170 112.586,238.800 112.417 C 284.111 112.208,306.231 111.969,308.000 111.669 C 313.325 110.766,318.613 109.250,322.296 107.573 C 323.228 107.148,324.067 106.800,324.161 106.800 C 324.254 106.800,325.651 106.047,327.265 105.126 C 359.214 86.903,365.511 45.596,340.600 17.656 C 336.362 12.903,322.842 4.000,319.863 4.000 C 319.524 4.000,319.149 3.841,319.030 3.648 C 318.910 3.454,318.404 3.197,317.906 3.076 C 317.408 2.955,316.280 2.650,315.400 2.398 C 313.460 1.842,311.003 1.299,307.800 0.716 C 305.591 0.314,100.632 -0.079,89.500 0.297 M284.800 191.000 C 285.546 191.770,286.247 192.400,286.357 192.400 C 286.467 192.400,285.946 191.770,285.200 191.000 C 284.454 190.230,283.753 189.600,283.643 189.600 C 283.533 189.600,284.054 190.230,284.800 191.000 M149.100 290.282 C 149.595 290.378,150.405 290.378,150.900 290.282 C 151.395 290.187,150.990 290.109,150.000 290.109 C 149.010 290.109,148.605 290.187,149.100 290.282 " stroke="none" fill="#fc5b53" fill-rule="evenodd"></path><path id="path1" d="M146.082 110.733 C 142.102 112.154,139.250 115.260,138.200 119.320 C 137.428 122.302,137.278 277.313,138.044 280.154 C 139.677 286.207,143.962 289.588,150.000 289.588 C 153.759 289.588,156.988 288.029,167.927 280.935 C 169.097 280.177,170.627 279.230,171.327 278.831 C 172.027 278.433,174.130 277.159,176.000 276.000 C 177.870 274.841,180.030 273.538,180.800 273.104 C 181.570 272.670,182.380 272.170,182.600 271.994 C 183.082 271.607,197.617 262.637,199.598 261.503 C 200.367 261.063,201.749 260.185,202.670 259.552 C 203.591 258.918,204.449 258.400,204.577 258.400 C 204.705 258.400,206.022 257.611,207.505 256.646 C 210.312 254.820,225.162 245.698,227.598 244.304 C 228.367 243.864,229.717 243.012,230.598 242.411 C 231.479 241.810,232.388 241.247,232.617 241.159 C 232.846 241.072,235.906 239.221,239.417 237.048 C 242.928 234.874,246.970 232.371,248.400 231.486 C 249.830 230.602,251.942 229.275,253.094 228.539 C 254.245 227.802,255.370 227.200,255.594 227.200 C 255.817 227.200,256.001 227.065,256.003 226.900 C 256.005 226.735,256.410 226.404,256.903 226.165 C 257.396 225.926,259.330 224.776,261.200 223.610 C 263.070 222.444,267.300 219.833,270.600 217.809 C 282.484 210.521,283.419 209.916,284.717 208.672 C 288.251 205.286,289.247 199.343,287.054 194.735 C 285.469 191.408,284.703 190.795,274.065 184.356 C 268.393 180.922,265.132 178.899,263.728 177.941 C 262.808 177.313,261.943 176.800,261.806 176.800 C 261.669 176.800,260.496 176.080,259.200 175.200 C 257.904 174.320,256.734 173.600,256.600 173.600 C 256.466 173.600,255.331 172.907,254.078 172.061 C 252.825 171.214,251.612 170.449,251.383 170.361 C 250.936 170.188,239.577 163.192,236.106 160.952 C 234.955 160.208,233.910 159.600,233.784 159.600 C 233.659 159.600,232.496 158.880,231.200 158.000 C 229.904 157.120,228.654 156.400,228.422 156.400 C 228.190 156.400,228.000 156.220,228.000 156.000 C 228.000 155.780,227.817 155.600,227.594 155.600 C 227.370 155.600,226.245 154.993,225.094 154.252 C 223.942 153.510,220.120 151.149,216.600 149.004 C 213.080 146.860,208.987 144.316,207.505 143.353 C 206.022 142.389,204.705 141.600,204.577 141.600 C 204.449 141.600,203.591 141.082,202.670 140.448 C 201.749 139.815,200.367 138.937,199.598 138.497 C 197.617 137.363,183.082 128.393,182.600 128.006 C 182.380 127.830,181.570 127.330,180.800 126.896 C 180.030 126.462,177.870 125.159,176.000 124.000 C 174.130 122.841,172.027 121.567,171.327 121.169 C 170.627 120.770,169.097 119.831,167.927 119.081 C 166.757 118.332,163.782 116.425,161.315 114.844 C 153.825 110.042,150.518 109.150,146.082 110.733 " stroke="none" fill="#fbfbfb" fill-rule="evenodd"></path><path id="path2" d="M310.700 0.285 C 311.635 0.372,312.400 0.614,312.400 0.822 C 312.400 1.030,312.646 1.200,312.947 1.200 C 314.079 1.200,321.128 3.729,324.400 5.309 C 339.958 12.821,351.952 27.923,355.129 44.000 C 356.365 50.256,356.453 51.295,356.268 57.400 C 355.787 73.269,350.694 85.284,339.810 96.227 C 335.365 100.695,331.707 103.351,325.400 106.689 C 322.714 108.111,318.604 109.765,316.000 110.473 C 307.177 112.871,309.423 112.800,241.959 112.800 C 179.688 112.800,171.943 112.949,164.062 114.303 L 162.324 114.601 166.014 116.900 C 168.043 118.165,169.860 119.200,170.052 119.200 C 170.243 119.200,170.400 119.380,170.400 119.600 C 170.400 119.820,170.590 120.000,170.822 120.000 C 171.054 120.000,172.304 120.720,173.600 121.600 C 174.896 122.480,176.146 123.200,176.378 123.200 C 176.610 123.200,176.800 123.359,176.800 123.553 C 176.800 123.748,177.115 124.007,177.500 124.129 C 178.185 124.346,180.404 125.604,180.800 126.000 C 180.910 126.110,181.540 126.519,182.200 126.908 C 188.031 130.349,193.024 133.449,193.133 133.698 C 193.207 133.864,193.444 134.000,193.661 134.000 C 193.878 134.000,194.841 134.540,195.800 135.200 C 196.759 135.860,197.737 136.400,197.972 136.400 C 198.207 136.400,198.400 136.580,198.400 136.800 C 198.400 137.020,198.670 137.200,199.000 137.200 C 199.330 137.200,199.600 137.380,199.600 137.600 C 199.600 137.820,199.793 138.000,200.028 138.000 C 200.263 138.000,201.241 138.540,202.200 139.200 C 203.159 139.860,204.137 140.400,204.372 140.400 C 204.607 140.400,204.800 140.559,204.800 140.753 C 204.800 140.948,205.115 141.207,205.500 141.329 C 206.221 141.557,208.445 142.831,208.800 143.218 C 208.967 143.401,215.342 147.269,219.800 149.894 C 220.460 150.282,221.060 150.735,221.133 150.900 C 221.207 151.065,221.488 151.200,221.758 151.200 C 222.028 151.200,222.606 151.515,223.042 151.900 C 224.047 152.788,225.991 153.983,226.900 154.271 C 227.285 154.393,227.600 154.652,227.600 154.847 C 227.600 155.041,227.793 155.200,228.028 155.200 C 228.263 155.200,229.241 155.740,230.200 156.400 C 231.159 157.060,232.137 157.600,232.372 157.600 C 232.607 157.600,232.800 157.780,232.800 158.000 C 232.800 158.220,233.070 158.400,233.400 158.400 C 233.730 158.400,234.000 158.580,234.000 158.800 C 234.000 159.020,234.166 159.200,234.369 159.200 C 234.572 159.200,236.687 160.397,239.069 161.861 C 241.451 163.324,244.295 165.053,245.390 165.703 C 246.484 166.353,248.137 167.406,249.062 168.043 C 249.987 168.679,250.859 169.200,251.000 169.200 C 251.141 169.200,252.041 169.740,253.000 170.400 C 253.959 171.060,254.937 171.600,255.172 171.600 C 255.407 171.600,255.600 171.780,255.600 172.000 C 255.600 172.220,255.836 172.400,256.125 172.400 C 256.413 172.400,257.007 172.715,257.445 173.100 C 258.185 173.751,258.989 174.263,261.000 175.362 C 261.440 175.603,261.890 175.890,262.000 176.000 C 262.110 176.110,262.740 176.515,263.400 176.900 C 268.586 179.925,274.223 183.422,274.333 183.683 C 274.407 183.858,274.644 184.000,274.861 184.000 C 275.078 184.000,276.041 184.540,277.000 185.200 C 277.959 185.860,278.855 186.400,278.990 186.400 C 279.537 186.400,285.064 190.382,285.950 191.414 C 287.370 193.068,288.909 196.708,289.121 198.914 C 289.290 200.680,289.388 200.841,290.154 200.609 C 290.619 200.469,295.230 200.191,300.400 199.992 C 309.436 199.645,313.256 199.303,318.000 198.414 C 331.869 195.816,343.711 190.998,355.503 183.154 C 368.351 174.608,379.170 162.949,387.182 149.017 C 392.742 139.349,397.234 126.431,398.802 115.600 C 399.041 113.950,399.433 111.407,399.673 109.949 C 400.267 106.342,399.922 82.562,399.266 81.906 C 399.010 81.650,398.800 80.677,398.800 79.744 C 398.800 78.811,398.620 77.936,398.400 77.800 C 398.180 77.664,398.000 76.933,398.000 76.176 C 398.000 75.419,397.820 74.800,397.600 74.800 C 397.380 74.800,397.200 74.080,397.200 73.200 C 397.200 72.320,397.020 71.600,396.800 71.600 C 396.580 71.600,396.400 71.060,396.400 70.400 C 396.400 69.740,396.220 69.200,396.000 69.200 C 395.780 69.200,395.600 68.660,395.600 68.000 C 395.600 67.340,395.420 66.800,395.200 66.800 C 394.980 66.800,394.800 66.260,394.800 65.600 C 394.800 64.940,394.620 64.400,394.400 64.400 C 394.180 64.400,394.000 64.051,394.000 63.624 C 394.000 63.197,393.820 62.736,393.600 62.600 C 393.380 62.464,393.200 61.913,393.200 61.376 C 393.200 60.839,393.062 60.400,392.894 60.400 C 392.561 60.400,391.200 57.469,391.200 56.752 C 391.200 56.190,389.500 53.044,389.100 52.867 C 388.935 52.793,388.800 52.388,388.800 51.967 C 388.800 51.545,388.620 51.200,388.400 51.200 C 388.180 51.200,388.000 50.840,388.000 50.400 C 388.000 49.960,387.820 49.600,387.600 49.600 C 387.380 49.600,387.200 49.364,387.200 49.075 C 387.200 48.787,386.840 48.164,386.400 47.692 C 385.960 47.220,385.600 46.556,385.600 46.217 C 385.600 45.878,385.420 45.600,385.200 45.600 C 384.980 45.600,384.800 45.330,384.800 45.000 C 384.800 44.670,384.620 44.400,384.400 44.400 C 384.180 44.400,384.000 44.222,384.000 44.005 C 384.000 43.584,383.174 42.493,381.700 40.968 C 381.205 40.456,380.800 39.830,380.800 39.579 C 380.800 39.327,380.260 38.617,379.600 38.000 C 378.940 37.383,378.400 36.718,378.400 36.521 C 378.400 35.458,364.542 21.600,363.479 21.600 C 363.282 21.600,362.617 21.060,362.000 20.400 C 361.383 19.740,360.673 19.200,360.421 19.200 C 360.170 19.200,359.544 18.795,359.032 18.300 C 357.507 16.826,356.416 16.000,355.995 16.000 C 355.778 16.000,355.600 15.820,355.600 15.600 C 355.600 15.380,355.330 15.200,355.000 15.200 C 354.670 15.200,354.400 15.020,354.400 14.800 C 354.400 14.580,354.122 14.400,353.783 14.400 C 353.444 14.400,352.780 14.040,352.308 13.600 C 351.836 13.160,351.213 12.800,350.925 12.800 C 350.636 12.800,350.400 12.620,350.400 12.400 C 350.400 12.180,350.055 12.000,349.633 12.000 C 349.212 12.000,348.807 11.863,348.733 11.697 C 348.560 11.302,343.821 8.800,343.247 8.800 C 342.531 8.800,339.600 7.438,339.600 7.106 C 339.600 6.938,339.161 6.800,338.624 6.800 C 338.087 6.800,337.536 6.620,337.400 6.400 C 337.264 6.180,336.803 6.000,336.376 6.000 C 335.949 6.000,335.600 5.820,335.600 5.600 C 335.600 5.380,335.060 5.200,334.400 5.200 C 333.740 5.200,333.200 5.020,333.200 4.800 C 333.200 4.580,332.660 4.400,332.000 4.400 C 331.340 4.400,330.800 4.220,330.800 4.000 C 330.800 3.780,330.260 3.600,329.600 3.600 C 328.940 3.600,328.400 3.420,328.400 3.200 C 328.400 2.980,327.680 2.800,326.800 2.800 C 325.920 2.800,325.200 2.620,325.200 2.400 C 325.200 2.180,324.581 2.000,323.824 2.000 C 323.067 2.000,322.336 1.820,322.200 1.600 C 322.064 1.380,321.189 1.200,320.256 1.200 C 319.323 1.200,318.389 1.040,318.180 0.845 C 317.971 0.650,315.820 0.408,313.400 0.308 C 310.980 0.208,309.765 0.197,310.700 0.285 M135.800 119.985 C 135.360 120.166,134.190 120.535,133.200 120.803 C 132.210 121.072,131.040 121.441,130.600 121.625 C 130.160 121.809,128.540 122.352,127.000 122.832 C 124.309 123.671,123.597 123.921,121.400 124.800 C 120.850 125.020,119.995 125.356,119.500 125.546 C 117.716 126.233,114.977 127.399,110.400 129.418 C 106.609 131.091,95.731 136.652,94.410 137.593 C 93.786 138.037,93.183 138.400,93.068 138.400 C 91.713 138.400,76.442 149.040,68.289 155.665 C 61.088 161.516,51.703 170.736,45.399 178.151 C 44.299 179.444,43.130 180.815,42.800 181.198 C 42.470 181.580,41.750 182.486,41.200 183.210 C 40.650 183.934,40.020 184.723,39.800 184.963 C 38.614 186.258,33.831 192.951,30.890 197.431 C 21.183 212.219,11.967 232.018,7.955 246.700 C 7.760 247.415,7.408 248.675,7.173 249.500 C 5.789 254.366,4.086 261.840,3.184 267.000 C 0.932 279.893,0.230 288.804,0.230 304.496 C 0.231 314.213,0.356 317.716,0.716 318.076 C 0.982 318.342,1.200 319.334,1.200 320.280 C 1.200 321.226,1.380 322.000,1.600 322.000 C 1.820 322.000,2.000 322.720,2.000 323.600 C 2.000 324.480,2.180 325.200,2.400 325.200 C 2.620 325.200,2.800 325.920,2.800 326.800 C 2.800 327.680,2.980 328.400,3.200 328.400 C 3.420 328.400,3.600 328.940,3.600 329.600 C 3.600 330.260,3.780 330.800,4.000 330.800 C 4.220 330.800,4.400 331.340,4.400 332.000 C 4.400 332.660,4.580 333.200,4.800 333.200 C 5.020 333.200,5.200 333.740,5.200 334.400 C 5.200 335.060,5.380 335.600,5.600 335.600 C 5.820 335.600,6.000 335.949,6.000 336.376 C 6.000 336.803,6.180 337.264,6.400 337.400 C 6.620 337.536,6.800 338.087,6.800 338.624 C 6.800 339.161,6.938 339.600,7.106 339.600 C 7.439 339.600,8.800 342.531,8.800 343.248 C 8.800 343.810,10.500 346.956,10.900 347.133 C 11.065 347.207,11.200 347.612,11.200 348.033 C 11.200 348.455,11.380 348.800,11.600 348.800 C 11.820 348.800,12.000 349.160,12.000 349.600 C 12.000 350.040,12.180 350.400,12.400 350.400 C 12.620 350.400,12.800 350.636,12.800 350.925 C 12.800 351.213,13.160 351.836,13.600 352.308 C 14.040 352.780,14.400 353.444,14.400 353.783 C 14.400 354.122,14.550 354.400,14.732 354.400 C 14.915 354.400,15.320 354.892,15.632 355.494 C 16.270 356.724,16.981 357.667,18.300 359.032 C 18.795 359.544,19.200 360.170,19.200 360.421 C 19.200 360.673,19.740 361.383,20.400 362.000 C 21.060 362.617,21.600 363.282,21.600 363.479 C 21.600 364.452,34.604 377.600,35.567 377.600 C 35.752 377.600,36.645 378.320,37.552 379.200 C 38.459 380.080,39.431 380.800,39.712 380.800 C 39.993 380.800,40.483 381.160,40.800 381.600 C 41.117 382.040,41.541 382.400,41.741 382.400 C 41.942 382.400,42.397 382.716,42.753 383.103 C 43.109 383.489,43.895 384.060,44.500 384.370 C 45.105 384.681,45.600 385.085,45.600 385.268 C 45.600 385.450,45.878 385.600,46.217 385.600 C 46.556 385.600,47.220 385.960,47.692 386.400 C 48.164 386.840,48.787 387.200,49.075 387.200 C 49.364 387.200,49.600 387.380,49.600 387.600 C 49.600 387.820,49.960 388.000,50.400 388.000 C 50.840 388.000,51.200 388.180,51.200 388.400 C 51.200 388.620,51.560 388.800,52.000 388.800 C 52.440 388.800,52.800 388.980,52.800 389.200 C 52.800 389.420,53.145 389.600,53.567 389.600 C 53.988 389.600,54.395 389.786,54.471 390.014 C 54.547 390.242,55.417 390.701,56.405 391.036 C 59.070 391.938,60.400 392.558,60.400 392.898 C 60.400 393.064,60.940 393.200,61.600 393.200 C 62.260 393.200,62.800 393.380,62.800 393.600 C 62.800 393.820,63.160 394.000,63.600 394.000 C 64.040 394.000,64.400 394.180,64.400 394.400 C 64.400 394.620,64.940 394.800,65.600 394.800 C 66.260 394.800,66.800 394.980,66.800 395.200 C 66.800 395.420,67.340 395.600,68.000 395.600 C 68.660 395.600,69.200 395.780,69.200 396.000 C 69.200 396.220,69.740 396.400,70.400 396.400 C 71.060 396.400,71.600 396.580,71.600 396.800 C 71.600 397.020,72.320 397.200,73.200 397.200 C 74.080 397.200,74.800 397.380,74.800 397.600 C 74.800 397.820,75.520 398.000,76.400 398.000 C 77.280 398.000,78.000 398.180,78.000 398.400 C 78.000 398.620,78.885 398.800,79.967 398.800 C 81.184 398.800,81.997 398.990,82.100 399.300 C 82.233 399.698,103.662 399.813,187.233 399.865 C 244.965 399.901,291.750 399.784,291.200 399.605 C 290.650 399.426,289.449 399.262,288.531 399.240 C 287.612 399.218,285.902 399.008,284.731 398.774 C 283.559 398.540,281.610 398.154,280.400 397.917 C 234.000 388.824,200.000 347.389,200.000 299.937 C 200.000 286.865,202.886 273.064,208.239 260.530 C 210.046 256.300,210.231 255.426,209.076 256.581 C 208.736 256.921,208.257 257.200,208.012 257.200 C 207.767 257.200,207.180 257.560,206.708 258.000 C 206.236 258.440,205.613 258.800,205.325 258.800 C 205.036 258.800,204.800 258.980,204.800 259.200 C 204.800 259.420,204.607 259.600,204.372 259.600 C 204.137 259.600,203.159 260.140,202.200 260.800 C 201.241 261.460,200.263 262.000,200.028 262.000 C 199.793 262.000,199.600 262.180,199.600 262.400 C 199.600 262.620,199.330 262.800,199.000 262.800 C 198.670 262.800,198.400 262.980,198.400 263.200 C 198.400 263.420,198.207 263.600,197.972 263.600 C 197.737 263.600,196.759 264.140,195.800 264.800 C 194.841 265.460,193.878 266.000,193.661 266.000 C 193.444 266.000,193.207 266.136,193.133 266.302 C 193.024 266.551,188.031 269.651,182.200 273.092 C 181.540 273.481,180.910 273.890,180.800 274.000 C 180.404 274.396,178.185 275.654,177.500 275.871 C 177.115 275.993,176.800 276.252,176.800 276.447 C 176.800 276.641,176.610 276.800,176.378 276.800 C 176.146 276.800,174.896 277.520,173.600 278.400 C 172.304 279.280,171.054 280.000,170.822 280.000 C 170.590 280.000,170.400 280.180,170.400 280.400 C 170.400 280.620,170.238 280.800,170.040 280.800 C 169.842 280.800,167.693 282.049,165.265 283.577 C 162.837 285.104,160.255 286.659,159.526 287.032 C 158.796 287.406,158.110 287.822,158.000 287.956 C 157.515 288.548,154.238 290.000,153.386 290.000 C 152.870 290.000,152.336 290.180,152.200 290.400 C 152.064 290.620,151.074 290.800,150.000 290.800 C 148.926 290.800,147.936 290.620,147.800 290.400 C 147.664 290.180,147.130 290.000,146.614 290.000 C 144.546 290.000,138.800 285.712,138.800 284.168 C 138.800 283.856,138.620 283.600,138.400 283.600 C 138.180 283.600,138.000 283.161,138.000 282.624 C 138.000 282.087,137.820 281.536,137.600 281.400 C 137.335 281.237,137.200 253.796,137.200 200.376 C 137.200 155.949,137.065 119.612,136.900 119.627 C 136.735 119.642,136.240 119.803,135.800 119.985 M397.200 324.600 C 397.200 324.930,397.380 325.200,397.600 325.200 C 397.820 325.200,398.000 324.930,398.000 324.600 C 398.000 324.270,397.820 324.000,397.600 324.000 C 397.380 324.000,397.200 324.270,397.200 324.600 M395.600 330.200 C 395.600 330.530,395.780 330.800,396.000 330.800 C 396.220 330.800,396.400 330.530,396.400 330.200 C 396.400 329.870,396.220 329.600,396.000 329.600 C 395.780 329.600,395.600 329.870,395.600 330.200 M382.013 357.891 C 381.489 358.482,381.503 358.523,382.146 358.276 C 382.542 358.124,382.941 358.000,383.033 358.000 C 383.125 358.000,383.200 357.820,383.200 357.600 C 383.200 357.012,382.681 357.139,382.013 357.891 M367.144 374.823 C 366.250 375.602,366.246 375.623,367.078 375.220 C 367.560 374.987,368.066 374.617,368.201 374.398 C 368.595 373.762,368.163 373.935,367.144 374.823 M355.592 383.810 C 355.314 384.145,355.202 384.535,355.343 384.676 C 355.484 384.818,355.600 384.723,355.600 384.467 C 355.600 384.210,355.870 384.000,356.200 384.000 C 356.530 384.000,356.800 383.820,356.800 383.600 C 356.800 383.006,356.168 383.116,355.592 383.810 M345.824 389.413 C 345.146 389.925,345.134 390.000,345.724 390.000 C 346.096 390.000,346.400 389.809,346.400 389.576 C 346.400 389.343,346.580 389.264,346.800 389.400 C 347.020 389.536,347.200 389.457,347.200 389.224 C 347.200 388.649,346.752 388.710,345.824 389.413 M334.145 394.278 C 334.577 394.711,335.600 394.771,335.600 394.365 C 335.600 394.164,335.210 394.000,334.733 394.000 C 334.257 394.000,333.992 394.125,334.145 394.278 " stroke="none" fill="#fb0404" fill-rule="evenodd"></path><path id="path3" d="M399.493 111.000 C 399.324 112.100,399.001 114.260,398.777 115.800 C 397.220 126.464,392.694 139.433,387.182 149.017 C 379.170 162.949,368.351 174.608,355.503 183.154 C 349.601 187.080,346.042 189.045,340.309 191.543 C 327.123 197.288,317.440 199.338,300.400 199.992 C 289.195 200.423,289.340 200.391,288.757 202.546 C 288.105 204.959,286.813 207.473,285.587 208.714 C 284.056 210.263,282.853 211.200,282.395 211.200 C 282.178 211.200,282.000 211.380,282.000 211.600 C 282.000 211.820,281.807 212.000,281.572 212.000 C 281.337 212.000,280.389 212.495,279.465 213.100 C 278.542 213.705,277.430 214.414,276.993 214.676 C 276.557 214.938,274.051 216.468,271.425 218.076 C 268.798 219.684,265.918 221.426,265.025 221.947 C 264.131 222.468,262.922 223.233,262.338 223.647 C 261.754 224.061,261.079 224.400,260.838 224.400 C 260.597 224.400,260.400 224.580,260.400 224.800 C 260.400 225.020,260.130 225.200,259.800 225.200 C 259.470 225.200,259.200 225.380,259.200 225.600 C 259.200 225.820,259.007 226.000,258.772 226.000 C 258.537 226.000,257.559 226.540,256.600 227.200 C 255.641 227.860,254.663 228.400,254.428 228.400 C 254.193 228.400,254.000 228.580,254.000 228.800 C 254.000 229.020,253.841 229.200,253.646 229.200 C 253.452 229.200,250.617 230.868,247.346 232.907 C 244.076 234.947,240.050 237.419,238.400 238.401 C 236.750 239.383,235.340 240.325,235.267 240.494 C 235.193 240.662,234.956 240.800,234.739 240.800 C 234.522 240.800,233.559 241.340,232.600 242.000 C 231.641 242.660,230.741 243.200,230.600 243.200 C 230.459 243.200,229.559 243.740,228.600 244.400 C 227.641 245.060,226.678 245.600,226.461 245.600 C 226.244 245.600,226.007 245.735,225.933 245.900 C 225.795 246.212,224.718 246.896,216.400 251.952 C 210.048 255.814,210.402 255.443,208.258 260.475 C 199.628 280.729,197.767 302.146,202.808 323.200 C 211.362 358.926,239.201 387.432,274.400 396.506 C 279.521 397.826,283.547 398.614,289.600 399.479 C 294.127 400.126,316.799 399.810,316.800 399.100 C 316.800 398.935,316.991 398.800,317.224 398.800 C 317.457 398.800,317.520 399.025,317.365 399.300 C 317.139 399.700,317.190 399.700,317.621 399.300 C 317.918 399.025,318.754 398.800,319.480 398.800 C 320.206 398.800,320.800 398.609,320.800 398.376 C 320.800 398.143,320.967 398.056,321.170 398.182 C 321.374 398.308,322.321 398.146,323.274 397.822 C 324.228 397.498,325.771 397.181,326.703 397.117 C 327.636 397.053,328.399 396.865,328.399 396.700 C 328.400 396.535,328.771 396.400,329.224 396.400 C 329.677 396.400,329.936 396.220,329.800 396.000 C 329.657 395.769,330.040 395.600,330.710 395.600 C 331.346 395.600,332.002 395.465,332.167 395.300 C 332.468 394.998,332.676 394.942,333.824 394.850 C 334.167 394.822,334.336 394.620,334.200 394.400 C 333.989 394.059,335.807 393.768,336.930 393.963 C 337.111 393.994,337.145 393.835,337.006 393.610 C 336.864 393.381,337.116 393.200,337.576 393.200 C 338.029 393.200,338.400 393.020,338.400 392.800 C 338.400 392.580,338.850 392.400,339.400 392.400 C 339.950 392.400,340.400 392.209,340.400 391.976 C 340.400 391.743,340.565 391.655,340.768 391.780 C 340.970 391.905,341.379 391.764,341.676 391.467 C 341.973 391.169,342.515 390.970,342.881 391.024 C 343.246 391.077,343.636 390.883,343.748 390.592 C 343.874 390.262,344.300 390.148,344.876 390.290 C 345.384 390.416,345.668 390.374,345.506 390.199 C 345.094 389.750,346.420 388.828,347.500 388.813 C 347.995 388.806,348.400 388.620,348.400 388.400 C 348.400 388.180,348.649 388.000,348.954 388.000 C 349.784 388.000,351.627 386.960,351.327 386.661 C 351.184 386.517,351.310 386.400,351.608 386.400 C 351.905 386.400,352.594 385.995,353.139 385.500 C 353.683 385.005,353.999 384.825,353.841 385.100 C 353.304 386.032,354.046 385.606,355.061 384.400 C 355.617 383.740,356.396 383.200,356.793 383.200 C 357.190 383.200,357.622 382.919,357.754 382.575 C 357.886 382.231,358.176 382.061,358.397 382.198 C 358.619 382.335,358.800 382.156,358.800 381.800 C 358.800 381.444,358.980 381.264,359.200 381.400 C 359.420 381.536,359.600 381.457,359.600 381.224 C 359.600 380.991,360.005 380.797,360.500 380.794 C 361.228 380.789,361.285 380.714,360.800 380.400 C 360.315 380.086,360.372 380.011,361.100 380.006 C 361.646 380.002,362.000 379.755,362.000 379.376 C 362.000 379.033,362.147 378.844,362.327 378.955 C 362.507 379.066,362.907 378.807,363.215 378.379 C 363.524 377.950,364.097 377.600,364.488 377.600 C 364.933 377.600,365.200 377.300,365.200 376.800 C 365.200 376.259,365.467 376.000,366.024 376.000 C 366.477 376.000,366.740 375.826,366.609 375.614 C 366.478 375.402,367.061 374.793,367.905 374.260 C 369.471 373.271,373.699 369.163,373.523 368.800 C 373.365 368.474,375.373 366.535,375.700 366.698 C 375.865 366.780,376.000 366.489,376.000 366.051 C 376.000 365.612,376.315 365.154,376.700 365.032 C 377.085 364.909,377.651 364.244,377.957 363.552 C 378.263 362.861,378.848 362.208,379.257 362.101 C 379.685 361.989,380.003 361.545,380.006 361.053 C 380.011 360.356,380.083 360.310,380.400 360.800 C 380.726 361.304,380.789 361.280,380.794 360.647 C 380.797 360.233,381.188 359.558,381.661 359.147 C 382.135 358.736,382.307 358.400,382.043 358.400 C 381.779 358.400,381.977 357.956,382.482 357.412 C 382.987 356.869,383.895 355.890,384.500 355.238 C 385.119 354.570,385.600 353.592,385.600 353.002 C 385.600 352.404,385.772 352.059,386.000 352.200 C 386.220 352.336,386.400 352.167,386.400 351.824 C 386.400 351.481,386.580 351.200,386.800 351.200 C 387.020 351.200,387.200 350.991,387.200 350.735 C 387.200 350.479,387.688 349.444,388.284 348.435 C 388.881 347.426,389.404 346.381,389.447 346.114 C 389.490 345.847,389.914 345.082,390.390 344.414 C 390.865 343.746,391.134 343.200,390.988 343.200 C 390.841 343.200,391.086 342.581,391.533 341.824 C 392.103 340.858,392.204 340.391,391.872 340.256 C 391.528 340.115,391.535 340.055,391.900 340.032 C 392.175 340.014,392.400 339.640,392.400 339.200 C 392.400 338.760,392.580 338.400,392.800 338.400 C 393.020 338.400,393.200 337.950,393.200 337.400 C 393.200 336.850,393.380 336.400,393.600 336.400 C 393.820 336.400,394.000 336.029,394.000 335.576 C 394.000 335.056,394.170 334.858,394.462 335.038 C 394.718 335.196,394.816 335.150,394.682 334.933 C 394.550 334.718,394.702 334.040,395.020 333.426 C 395.339 332.811,395.600 331.699,395.600 330.954 C 395.600 330.209,395.780 329.600,396.000 329.600 C 396.220 329.600,396.400 329.276,396.400 328.880 C 396.400 328.484,396.625 327.918,396.900 327.621 C 397.306 327.184,397.288 327.142,396.800 327.400 C 396.312 327.658,396.294 327.616,396.700 327.179 C 396.975 326.882,397.200 326.046,397.200 325.320 C 397.200 324.594,397.380 324.000,397.600 324.000 C 397.820 324.000,398.000 323.561,398.000 323.024 C 398.000 322.487,398.189 321.931,398.419 321.788 C 398.710 321.609,398.704 321.366,398.400 321.000 C 398.096 320.634,398.090 320.391,398.381 320.212 C 398.611 320.069,398.800 319.524,398.800 319.000 C 398.800 318.476,398.999 317.924,399.243 317.774 C 399.551 317.583,399.521 317.394,399.143 317.150 C 398.693 316.860,398.703 316.734,399.200 316.415 C 399.730 316.074,399.813 305.211,399.908 223.315 C 400.025 122.665,399.970 107.893,399.493 111.000 " stroke="none" fill="#d4042b" fill-rule="evenodd"></path><path id="path4" d="M147.800 109.690 C 146.920 109.904,145.887 110.241,145.505 110.439 C 145.123 110.638,144.621 110.800,144.389 110.800 C 144.156 110.800,143.749 110.977,143.483 111.194 C 143.217 111.411,142.409 112.061,141.688 112.640 C 139.575 114.334,138.014 116.920,137.801 119.079 C 137.619 120.929,137.628 120.948,138.032 119.600 C 140.797 110.374,149.203 107.513,158.004 112.803 C 161.424 114.858,162.449 115.007,159.293 112.990 C 156.096 110.947,151.115 109.007,149.694 109.251 C 149.532 109.278,148.680 109.476,147.800 109.690 M163.400 116.211 C 163.840 116.569,164.740 117.126,165.400 117.450 C 166.522 118.001,166.548 117.997,165.800 117.389 C 165.360 117.031,164.460 116.474,163.800 116.150 C 162.678 115.599,162.652 115.603,163.400 116.211 M166.800 118.097 C 166.800 118.418,171.263 121.270,171.459 121.075 C 171.560 120.974,170.958 120.477,170.121 119.970 C 169.284 119.463,168.195 118.792,167.700 118.478 C 167.205 118.165,166.800 117.993,166.800 118.097 M173.800 122.596 C 174.694 123.339,177.228 124.709,176.600 124.110 C 176.380 123.900,175.480 123.324,174.600 122.830 C 173.720 122.335,173.360 122.230,173.800 122.596 M177.200 124.514 C 177.200 124.755,180.306 126.800,180.671 126.800 C 180.830 126.800,180.789 126.649,180.580 126.464 C 179.952 125.908,177.200 124.321,177.200 124.514 M181.200 126.915 C 181.200 127.120,185.879 130.165,189.000 131.992 C 191.858 133.664,189.893 132.124,186.600 130.111 C 184.840 129.035,182.905 127.829,182.300 127.431 C 181.695 127.033,181.200 126.801,181.200 126.915 M191.566 133.482 C 193.202 134.698,196.005 136.234,194.800 135.253 C 194.250 134.806,193.080 134.063,192.200 133.602 C 191.014 132.980,190.850 132.949,191.566 133.482 M196.000 136.114 C 196.000 136.355,199.106 138.400,199.471 138.400 C 199.630 138.400,199.589 138.249,199.380 138.064 C 198.752 137.508,196.000 135.921,196.000 136.114 M200.000 138.497 C 200.000 138.814,204.462 141.671,204.655 141.479 C 204.753 141.380,204.226 140.940,203.483 140.502 C 202.739 140.063,201.651 139.390,201.065 139.006 C 200.479 138.622,200.000 138.393,200.000 138.497 M205.200 141.707 C 205.200 141.816,206.325 142.622,207.700 143.496 C 211.503 145.914,218.524 150.219,219.200 150.547 C 220.617 151.233,217.513 149.164,212.649 146.179 C 209.762 144.408,206.905 142.632,206.300 142.233 C 205.695 141.834,205.200 141.598,205.200 141.707 M220.600 151.411 C 221.040 151.769,221.940 152.326,222.600 152.650 C 223.722 153.201,223.748 153.197,223.000 152.589 C 222.560 152.231,221.660 151.674,221.000 151.350 C 219.878 150.799,219.852 150.803,220.600 151.411 M224.000 153.314 C 224.000 153.555,227.106 155.600,227.471 155.600 C 227.630 155.600,227.589 155.449,227.380 155.264 C 226.752 154.708,224.000 153.121,224.000 153.314 M229.200 156.501 C 229.200 156.716,231.735 158.435,233.712 159.560 C 234.420 159.963,236.530 161.236,238.400 162.387 C 242.587 164.966,242.710 165.035,242.200 164.493 C 241.833 164.102,237.745 161.524,233.118 158.764 C 232.082 158.147,230.777 157.342,230.218 156.975 C 229.658 156.608,229.200 156.395,229.200 156.501 M243.566 165.482 C 245.202 166.698,248.005 168.234,246.800 167.253 C 246.250 166.806,245.080 166.063,244.200 165.602 C 243.014 164.980,242.850 164.949,243.566 165.482 M248.000 168.137 C 248.000 168.377,251.141 170.402,251.491 170.387 C 251.661 170.380,251.440 170.097,251.000 169.757 C 250.044 169.018,248.000 167.915,248.000 168.137 M253.200 171.314 C 253.200 171.555,256.306 173.600,256.671 173.600 C 256.830 173.600,256.789 173.449,256.580 173.264 C 255.952 172.708,253.200 171.121,253.200 171.314 M257.200 173.697 C 257.200 174.014,261.662 176.871,261.855 176.679 C 261.953 176.580,261.426 176.140,260.683 175.702 C 259.939 175.263,258.851 174.590,258.265 174.206 C 257.679 173.822,257.200 173.593,257.200 173.697 M262.400 176.914 C 262.400 177.298,274.035 184.499,274.272 184.261 C 274.371 184.162,272.325 182.807,269.726 181.250 C 267.127 179.693,264.415 178.037,263.700 177.570 C 262.985 177.103,262.400 176.808,262.400 176.914 M277.800 186.611 C 278.240 186.969,279.140 187.526,279.800 187.850 C 280.922 188.401,280.948 188.397,280.200 187.789 C 279.760 187.431,278.860 186.874,278.200 186.550 C 277.078 185.999,277.052 186.003,277.800 186.611 M281.996 189.088 C 285.409 191.525,287.390 194.315,288.031 197.585 C 288.280 198.857,288.313 198.887,288.354 197.875 C 288.461 195.265,284.905 190.238,281.958 188.833 C 281.012 188.383,281.012 188.386,281.996 189.088 M208.362 256.041 C 206.008 257.549,204.106 259.021,205.600 258.179 C 206.515 257.664,210.924 254.809,211.142 254.591 C 211.708 254.025,210.637 254.584,208.362 256.041 M202.287 259.768 C 200.104 261.279,199.218 262.123,200.965 261.027 C 201.606 260.625,202.731 259.941,203.465 259.508 C 204.199 259.075,204.800 258.649,204.800 258.560 C 204.800 258.181,204.080 258.527,202.287 259.768 M197.681 262.572 C 195.721 263.958,195.585 264.265,197.400 263.205 C 199.278 262.110,199.925 261.591,199.380 261.620 C 199.171 261.630,198.407 262.059,197.681 262.572 M193.684 265.066 C 192.740 265.635,192.048 266.181,192.147 266.280 C 192.324 266.457,195.600 264.433,195.600 264.147 C 195.600 263.921,195.517 263.960,193.684 265.066 M186.000 269.830 C 183.690 271.274,181.620 272.656,181.400 272.901 C 181.180 273.146,181.540 273.009,182.200 272.596 C 182.860 272.183,184.840 270.965,186.600 269.889 C 189.591 268.060,190.806 267.197,190.380 267.202 C 190.281 267.204,188.310 268.386,186.000 269.830 M178.881 274.172 C 176.921 275.558,176.785 275.865,178.600 274.805 C 180.478 273.710,181.125 273.191,180.580 273.220 C 180.371 273.230,179.607 273.659,178.881 274.172 M174.900 276.626 C 173.965 277.187,173.200 277.740,173.200 277.855 C 173.200 278.071,175.899 276.538,176.580 275.936 C 177.267 275.328,176.627 275.591,174.900 276.626 M169.681 279.772 C 168.956 280.284,168.236 280.839,168.081 281.003 C 167.664 281.447,170.073 280.159,171.000 279.443 C 172.275 278.459,171.137 278.742,169.681 279.772 M137.634 279.800 C 137.622 280.240,137.787 280.870,138.000 281.200 C 138.514 281.995,138.514 280.996,138.000 279.800 L 137.656 279.000 137.634 279.800 M164.500 283.026 C 162.612 284.158,162.177 284.749,163.900 283.841 C 165.109 283.203,166.716 282.031,166.400 282.017 C 166.290 282.012,165.435 282.466,164.500 283.026 M139.974 285.101 C 140.805 286.327,142.661 287.926,144.000 288.571 C 144.330 288.729,144.060 288.447,143.400 287.943 C 142.740 287.439,141.501 286.301,140.646 285.413 C 139.255 283.969,139.184 283.937,139.974 285.101 M159.200 286.251 C 156.017 288.193,154.296 289.565,157.000 288.005 C 160.809 285.808,162.977 284.338,162.300 284.411 C 162.245 284.417,160.850 285.245,159.200 286.251 M145.800 289.378 C 147.435 290.176,152.326 290.177,154.054 289.378 C 154.794 289.036,154.950 288.891,154.400 289.056 C 153.134 289.436,146.926 289.448,145.600 289.074 C 144.810 288.851,144.852 288.914,145.800 289.378 " stroke="none" fill="#fc8684" fill-rule="evenodd"></path><path id="path5" d="M29.796 28.407 C 29.658 28.630,29.390 28.717,29.200 28.600 C 29.010 28.483,28.750 28.557,28.621 28.766 C 28.146 29.535,29.117 29.555,29.809 28.791 C 30.202 28.356,30.417 28.000,30.286 28.000 C 30.154 28.000,29.934 28.183,29.796 28.407 M288.893 200.400 C 288.893 201.170,288.975 201.485,289.076 201.100 C 289.176 200.715,289.176 200.085,289.076 199.700 C 288.975 199.315,288.893 199.630,288.893 200.400 " stroke="none" fill="#f23139" fill-rule="evenodd"></path><path id="path6" d="M284.600 208.886 C 282.887 210.655,282.811 210.794,284.070 209.851 C 285.254 208.965,287.161 206.768,286.709 206.810 C 286.649 206.816,285.700 207.750,284.600 208.886 M280.500 211.826 C 279.565 212.387,278.800 212.940,278.800 213.055 C 278.800 213.271,281.499 211.738,282.180 211.136 C 282.867 210.528,282.227 210.791,280.500 211.826 M275.900 214.629 C 275.295 214.957,274.800 215.310,274.800 215.413 C 274.800 215.799,275.432 215.557,276.400 214.800 C 277.589 213.870,277.411 213.809,275.900 214.629 M270.100 218.226 C 268.212 219.358,267.777 219.949,269.500 219.041 C 270.709 218.403,272.316 217.231,272.000 217.217 C 271.890 217.212,271.035 217.666,270.100 218.226 M266.000 220.800 C 265.010 221.458,264.339 221.997,264.509 221.998 C 264.857 222.000,268.000 219.974,268.000 219.747 C 268.000 219.492,267.842 219.575,266.000 220.800 M260.800 224.000 C 259.810 224.658,259.139 225.197,259.309 225.198 C 259.657 225.200,262.800 223.174,262.800 222.947 C 262.800 222.692,262.642 222.775,260.800 224.000 M256.100 226.846 C 254.737 227.719,254.295 228.306,255.500 227.643 C 256.418 227.139,257.856 226.027,257.600 226.019 C 257.490 226.016,256.815 226.388,256.100 226.846 M251.281 229.772 C 249.525 231.014,249.097 231.545,250.600 230.618 C 252.678 229.335,253.391 228.799,252.989 228.820 C 252.775 228.830,252.007 229.259,251.281 229.772 M246.700 232.629 C 245.205 233.440,245.296 233.778,246.800 233.000 C 247.460 232.659,248.000 232.294,248.000 232.190 C 248.000 231.932,247.957 231.947,246.700 232.629 M242.084 235.466 C 241.140 236.035,240.448 236.581,240.547 236.680 C 240.724 236.857,244.000 234.833,244.000 234.547 C 244.000 234.321,243.917 234.360,242.084 235.466 M237.400 238.400 C 236.740 238.837,236.380 239.192,236.600 239.188 C 237.001 239.182,239.176 237.623,238.800 237.612 C 238.690 237.608,238.060 237.963,237.400 238.400 M233.531 240.722 C 231.409 242.105,229.836 243.363,231.200 242.587 C 232.885 241.628,236.000 239.552,236.000 239.388 C 236.000 239.113,235.998 239.114,233.531 240.722 M227.793 244.256 C 225.752 245.609,225.032 246.323,226.626 245.414 C 228.030 244.614,229.901 243.222,229.593 243.209 C 229.479 243.204,228.669 243.675,227.793 244.256 M223.300 247.026 C 222.365 247.587,221.600 248.140,221.600 248.255 C 221.600 248.471,224.299 246.938,224.980 246.336 C 225.667 245.728,225.027 245.991,223.300 247.026 M218.700 249.829 C 217.205 250.640,217.296 250.978,218.800 250.200 C 219.460 249.859,220.000 249.494,220.000 249.390 C 220.000 249.132,219.957 249.147,218.700 249.829 M213.400 253.200 C 212.740 253.637,212.380 253.992,212.600 253.988 C 213.001 253.982,215.176 252.423,214.800 252.412 C 214.690 252.408,214.060 252.763,213.400 253.200 " stroke="none" fill="#e8708c" fill-rule="evenodd"></path><path id="path7" d="M88.500 0.291 C 89.325 0.378,90.675 0.378,91.500 0.291 C 92.325 0.205,91.650 0.134,90.000 0.134 C 88.350 0.134,87.675 0.205,88.500 0.291 M305.800 0.371 C 306.240 0.576,307.307 0.756,308.172 0.772 C 309.036 0.787,310.296 0.968,310.972 1.173 C 311.647 1.378,313.010 1.762,314.000 2.026 C 320.826 3.849,327.418 6.984,333.207 11.159 C 356.614 28.041,363.044 62.685,347.156 86.320 C 346.520 87.266,346.000 88.211,346.000 88.420 C 346.000 88.629,345.859 88.800,345.686 88.800 C 345.514 88.800,345.047 89.351,344.649 90.025 C 341.981 94.542,327.012 106.800,324.164 106.800 C 323.956 106.800,320.485 108.315,319.505 108.833 C 319.123 109.035,318.536 109.200,318.200 109.200 C 317.864 109.200,317.277 109.362,316.895 109.561 C 315.496 110.288,311.001 111.234,305.400 111.979 C 303.252 112.265,281.570 112.404,239.418 112.403 C 177.518 112.400,172.874 112.482,164.643 113.730 C 161.753 114.168,161.549 114.258,162.220 114.804 C 162.624 115.132,162.831 115.195,162.681 114.945 C 162.388 114.456,166.139 113.924,175.000 113.200 C 177.860 112.967,204.873 112.807,241.835 112.804 C 309.431 112.800,307.178 112.870,316.000 110.473 C 318.604 109.765,322.714 108.111,325.400 106.689 C 331.707 103.351,335.365 100.695,339.810 96.227 C 350.694 85.284,355.787 73.269,356.268 57.400 C 356.453 51.295,356.365 50.256,355.129 44.000 C 351.952 27.923,339.958 12.821,324.400 5.309 C 321.174 3.751,314.084 1.200,312.980 1.200 C 312.698 1.200,312.407 1.038,312.333 0.840 C 312.260 0.642,310.580 0.372,308.600 0.239 C 306.248 0.081,305.277 0.127,305.800 0.371 M82.200 0.800 C 82.051 1.042,82.596 1.200,83.576 1.200 C 84.469 1.200,85.200 1.020,85.200 0.800 C 85.200 0.580,84.581 0.400,83.824 0.400 C 83.067 0.400,82.336 0.580,82.200 0.800 M78.200 1.600 C 78.053 1.839,78.537 2.000,79.400 2.000 C 80.263 2.000,80.747 1.839,80.600 1.600 C 80.279 1.081,78.521 1.081,78.200 1.600 M74.800 2.400 C 74.800 2.620,75.351 2.800,76.024 2.800 C 76.737 2.800,77.144 2.633,77.000 2.400 C 76.864 2.180,76.313 2.000,75.776 2.000 C 75.239 2.000,74.800 2.180,74.800 2.400 M72.200 3.200 C 72.060 3.427,72.396 3.600,72.976 3.600 C 73.539 3.600,74.000 3.420,74.000 3.200 C 74.000 2.980,73.651 2.800,73.224 2.800 C 72.797 2.800,72.336 2.980,72.200 3.200 M69.200 4.000 C 69.200 4.220,69.650 4.400,70.200 4.400 C 70.750 4.400,71.200 4.220,71.200 4.000 C 71.200 3.780,70.750 3.600,70.200 3.600 C 69.650 3.600,69.200 3.780,69.200 4.000 M67.000 4.800 C 66.864 5.020,67.123 5.200,67.576 5.200 C 68.029 5.200,68.400 5.020,68.400 4.800 C 68.400 4.580,68.141 4.400,67.824 4.400 C 67.507 4.400,67.136 4.580,67.000 4.800 M64.400 5.600 C 64.400 5.820,64.850 6.000,65.400 6.000 C 65.950 6.000,66.400 5.820,66.400 5.600 C 66.400 5.380,65.950 5.200,65.400 5.200 C 64.850 5.200,64.400 5.380,64.400 5.600 M62.800 6.400 C 62.800 6.620,63.070 6.800,63.400 6.800 C 63.730 6.800,64.000 6.620,64.000 6.400 C 64.000 6.180,63.730 6.000,63.400 6.000 C 63.070 6.000,62.800 6.180,62.800 6.400 M60.100 7.344 C 59.071 7.854,58.915 8.400,59.800 8.400 C 60.130 8.400,60.400 8.220,60.400 8.000 C 60.400 7.780,60.850 7.600,61.400 7.600 C 61.950 7.600,62.400 7.420,62.400 7.200 C 62.400 6.694,61.270 6.764,60.100 7.344 M54.667 9.867 C 54.284 10.249,54.338 10.800,54.757 10.800 C 54.954 10.800,55.218 10.530,55.345 10.200 C 55.579 9.590,55.153 9.381,54.667 9.867 M52.543 10.955 C 52.071 11.217,51.425 11.648,51.106 11.912 C 50.787 12.177,50.412 12.279,50.273 12.139 C 50.133 12.000,49.910 12.170,49.776 12.517 C 49.643 12.865,49.279 13.052,48.967 12.932 C 48.655 12.812,48.400 12.914,48.400 13.157 C 48.400 13.401,48.130 13.600,47.800 13.600 C 47.470 13.600,47.200 13.780,47.200 14.000 C 47.200 14.463,48.268 14.547,48.467 14.100 C 48.540 13.935,49.815 13.198,51.300 12.462 C 52.785 11.726,53.899 10.961,53.776 10.762 C 53.653 10.563,53.518 10.418,53.476 10.439 C 53.434 10.461,53.014 10.693,52.543 10.955 M45.500 14.957 C 45.115 15.249,44.800 15.603,44.800 15.744 C 44.800 16.201,45.642 16.015,46.229 15.429 C 47.288 14.369,46.740 14.015,45.500 14.957 M43.260 16.642 C 42.531 17.466,43.000 17.857,43.781 17.076 C 44.121 16.736,44.400 16.354,44.400 16.229 C 44.400 15.809,43.806 16.024,43.260 16.642 M40.860 18.242 C 40.131 19.066,40.600 19.457,41.381 18.676 C 41.721 18.336,42.000 17.954,42.000 17.829 C 42.000 17.409,41.406 17.624,40.860 18.242 M37.661 20.655 C 36.925 21.425,36.424 22.158,36.549 22.283 C 36.674 22.408,37.304 21.945,37.949 21.255 C 38.593 20.565,39.319 20.000,39.560 20.000 C 39.802 20.000,40.000 19.820,40.000 19.600 C 40.000 18.816,38.979 19.276,37.661 20.655 M28.256 29.245 C 24.987 32.546,22.432 35.366,22.579 35.512 C 22.725 35.659,24.685 33.893,26.935 31.589 C 29.184 29.285,31.945 26.556,33.070 25.524 C 34.842 23.898,35.291 23.140,34.433 23.222 C 34.305 23.235,31.525 25.945,28.256 29.245 M20.500 37.816 C 19.193 39.184,18.857 40.000,19.600 40.000 C 19.820 40.000,20.000 39.802,20.000 39.560 C 20.000 39.319,20.540 38.617,21.200 38.000 C 21.860 37.383,22.400 36.771,22.400 36.640 C 22.400 36.111,21.735 36.523,20.500 37.816 M18.060 41.042 C 17.331 41.866,17.800 42.257,18.581 41.476 C 18.921 41.136,19.200 40.754,19.200 40.629 C 19.200 40.209,18.606 40.424,18.060 41.042 M16.460 43.442 C 15.731 44.266,16.200 44.657,16.981 43.876 C 17.321 43.536,17.600 43.154,17.600 43.029 C 17.600 42.609,17.006 42.824,16.460 43.442 M14.869 45.639 C 14.580 46.100,14.438 46.572,14.553 46.687 C 14.828 46.961,16.000 45.780,16.000 45.229 C 16.000 44.532,15.431 44.738,14.869 45.639 M13.600 47.800 C 13.600 48.130,13.401 48.400,13.157 48.400 C 12.914 48.400,12.812 48.655,12.932 48.967 C 13.052 49.279,12.865 49.643,12.517 49.776 C 12.170 49.910,12.002 50.135,12.144 50.277 C 12.286 50.419,12.145 50.820,11.832 51.168 C 11.081 52.001,10.504 54.230,11.142 53.836 C 11.394 53.680,11.600 53.203,11.600 52.776 C 11.600 52.349,11.740 52.000,11.910 52.000 C 12.081 52.000,12.576 51.192,13.010 50.204 C 13.445 49.216,13.935 48.406,14.100 48.404 C 14.265 48.402,14.400 48.130,14.400 47.800 C 14.400 47.470,14.220 47.200,14.000 47.200 C 13.780 47.200,13.600 47.470,13.600 47.800 M9.867 54.667 C 9.381 55.153,9.590 55.579,10.200 55.345 C 10.530 55.218,10.800 54.954,10.800 54.757 C 10.800 54.338,10.249 54.284,9.867 54.667 M8.864 57.019 C 8.294 58.270,8.267 58.929,8.800 58.600 C 9.020 58.464,9.200 58.003,9.200 57.576 C 9.200 57.149,9.380 56.800,9.600 56.800 C 9.820 56.800,10.000 56.620,10.000 56.400 C 10.000 55.638,9.326 56.005,8.864 57.019 M7.300 60.283 C 6.697 61.582,6.658 62.400,7.200 62.400 C 7.420 62.400,7.600 61.950,7.600 61.400 C 7.600 60.850,7.780 60.400,8.000 60.400 C 8.220 60.400,8.400 60.130,8.400 59.800 C 8.400 58.859,7.849 59.101,7.300 60.283 M6.000 63.376 C 6.000 63.693,6.180 64.064,6.400 64.200 C 6.620 64.336,6.800 64.077,6.800 63.624 C 6.800 63.171,6.620 62.800,6.400 62.800 C 6.180 62.800,6.000 63.059,6.000 63.376 M5.200 65.400 C 5.200 65.950,5.380 66.400,5.600 66.400 C 5.820 66.400,6.000 65.950,6.000 65.400 C 6.000 64.850,5.820 64.400,5.600 64.400 C 5.380 64.400,5.200 64.850,5.200 65.400 M4.400 67.800 C 4.400 68.350,4.580 68.800,4.800 68.800 C 5.020 68.800,5.200 68.350,5.200 67.800 C 5.200 67.250,5.020 66.800,4.800 66.800 C 4.580 66.800,4.400 67.250,4.400 67.800 M3.600 70.200 C 3.600 70.750,3.780 71.200,4.000 71.200 C 4.220 71.200,4.400 70.750,4.400 70.200 C 4.400 69.650,4.220 69.200,4.000 69.200 C 3.780 69.200,3.600 69.650,3.600 70.200 M3.067 72.267 C 2.652 72.682,2.753 74.000,3.200 74.000 C 3.420 74.000,3.600 73.550,3.600 73.000 C 3.600 71.953,3.508 71.826,3.067 72.267 M2.000 76.000 C 2.000 76.660,2.180 77.200,2.400 77.200 C 2.620 77.200,2.800 76.660,2.800 76.000 C 2.800 75.340,2.620 74.800,2.400 74.800 C 2.180 74.800,2.000 75.340,2.000 76.000 M1.467 78.267 C 1.057 78.677,1.151 80.322,1.600 80.600 C 1.838 80.747,2.000 80.271,2.000 79.424 C 2.000 77.962,1.928 77.805,1.467 78.267 M0.667 82.267 C 0.243 82.690,0.357 85.200,0.800 85.200 C 1.020 85.200,1.200 84.480,1.200 83.600 C 1.200 81.965,1.134 81.800,0.667 82.267 M0.134 90.000 C 0.134 91.650,0.205 92.325,0.291 91.500 C 0.378 90.675,0.378 89.325,0.291 88.500 C 0.205 87.675,0.134 88.350,0.134 90.000 M135.800 119.477 C 134.605 119.751,121.955 123.961,120.800 124.468 C 120.250 124.709,119.440 125.039,119.000 125.200 C 117.700 125.676,115.366 126.656,111.400 128.390 C 102.759 132.169,88.006 140.371,81.851 144.817 C 80.943 145.473,79.120 146.760,77.800 147.677 C 68.205 154.342,53.874 167.476,45.367 177.400 C 39.223 184.567,28.000 199.828,28.000 201.015 C 28.000 201.147,27.490 202.008,26.867 202.928 C 26.244 203.848,25.618 204.870,25.476 205.200 C 25.334 205.530,24.669 206.700,23.998 207.800 C 21.247 212.309,15.560 224.204,13.001 230.800 C 12.190 232.890,11.372 234.960,11.183 235.400 C 10.745 236.416,7.881 245.218,7.212 247.600 C 6.934 248.590,6.560 249.850,6.379 250.400 C 4.462 256.248,0.831 276.041,0.808 280.767 C 0.795 283.600,1.137 282.478,1.596 278.182 C 2.578 268.988,4.626 258.457,7.173 249.500 C 7.408 248.675,7.760 247.415,7.955 246.700 C 11.967 232.018,21.183 212.219,30.890 197.431 C 33.831 192.951,38.614 186.258,39.800 184.963 C 40.020 184.723,40.650 183.934,41.200 183.210 C 41.750 182.486,42.470 181.580,42.800 181.198 C 43.130 180.815,44.299 179.444,45.399 178.151 C 55.420 166.364,68.266 154.810,81.369 145.800 C 85.983 142.628,92.666 138.400,93.068 138.400 C 93.183 138.400,93.786 138.037,94.410 137.593 C 95.731 136.652,106.609 131.091,110.400 129.418 C 114.006 127.827,116.457 126.775,117.400 126.414 C 117.840 126.245,118.740 125.879,119.400 125.600 C 122.531 124.277,123.518 123.918,127.000 122.832 C 128.540 122.352,130.160 121.809,130.600 121.625 C 131.040 121.441,132.210 121.073,133.200 120.807 C 136.160 120.010,138.347 118.891,135.800 119.477 M189.200 131.383 C 189.200 131.657,192.812 133.721,192.986 133.547 C 193.068 133.465,192.250 132.903,191.168 132.299 C 190.086 131.695,189.200 131.283,189.200 131.383 M194.000 134.420 C 195.387 135.361,196.178 135.635,195.200 134.836 C 194.650 134.386,194.020 134.017,193.800 134.015 C 193.580 134.013,193.670 134.196,194.000 134.420 M214.800 146.975 C 214.800 147.085,215.745 147.776,216.900 148.510 C 219.715 150.300,220.299 150.621,219.800 150.102 C 219.225 149.503,214.800 146.737,214.800 146.975 M245.800 166.207 C 246.240 166.566,246.960 167.035,247.400 167.251 L 248.200 167.644 247.400 166.993 C 246.960 166.634,246.240 166.165,245.800 165.949 L 245.000 165.556 245.800 166.207 M269.800 181.007 C 270.240 181.366,270.960 181.835,271.400 182.051 L 272.200 182.444 271.400 181.793 C 270.960 181.434,270.240 180.965,269.800 180.749 L 269.000 180.356 269.800 181.007 M275.200 184.420 C 276.587 185.361,277.378 185.635,276.400 184.836 C 275.850 184.386,275.220 184.017,275.000 184.015 C 274.780 184.013,274.870 184.196,275.200 184.420 M279.200 186.820 C 280.587 187.761,281.378 188.035,280.400 187.236 C 279.850 186.786,279.220 186.417,279.000 186.415 C 278.780 186.413,278.870 186.596,279.200 186.820 M288.468 196.800 C 288.488 197.839,289.118 199.546,289.132 198.600 C 289.138 198.160,288.989 197.440,288.800 197.000 C 288.589 196.510,288.461 196.432,288.468 196.800 M194.600 265.200 C 193.940 265.637,193.580 265.992,193.800 265.988 C 194.201 265.982,196.376 264.423,196.000 264.412 C 195.890 264.408,195.260 264.763,194.600 265.200 M190.900 267.426 C 188.571 268.822,188.742 269.096,191.100 267.746 C 193.372 266.445,193.435 266.399,192.967 266.404 C 192.765 266.406,191.835 266.866,190.900 267.426 M0.300 284.556 C -0.163 287.571,-0.044 292.202,0.452 290.483 C 0.661 289.758,0.780 287.688,0.716 285.883 C 0.606 282.765,0.585 282.698,0.300 284.556 M161.300 285.646 C 159.937 286.519,159.495 287.106,160.700 286.443 C 161.618 285.939,163.056 284.827,162.800 284.819 C 162.690 284.816,162.015 285.188,161.300 285.646 M147.862 290.500 C 147.964 290.665,148.926 290.800,150.000 290.800 C 151.074 290.800,152.036 290.665,152.138 290.500 C 152.240 290.335,151.278 290.200,150.000 290.200 C 148.722 290.200,147.760 290.335,147.862 290.500 " stroke="none" fill="#fc2a26" fill-rule="evenodd"></path><path id="path8" d="" stroke="none" fill="#f46169" fill-rule="evenodd"></path></g></svg>